<svg xmlns="http://www.w3.org/2000/svg" xmlns:xlink="http://www.w3.org/1999/xlink" fill="none" version="1.1" width="36" height="36" viewBox="0 0 36 36"><defs><clipPath id="master_svg0_131_02120"><rect x="0" y="0" width="36" height="36" rx="0"/></clipPath></defs><g clip-path="url(#master_svg0_131_02120)"><g><path d="M19.20499921875,3.53759765625C19.20499921875,3.53759765625,16.794299218749998,3.53759765625,16.794299218749998,3.53759765625C16.57999921875,3.53759765625,16.47289921875,3.64474065625,16.47289921875,3.85902665625C16.47289921875,3.85902665625,16.47289921875,16.47509765625,16.47289921875,16.47509765625C16.47289921875,16.47509765625,4.50062821875,16.47509765625,4.50062821875,16.47509765625C4.28634221875,16.47509765625,4.17919921875,16.582197656250003,4.17919921875,16.79649765625C4.17919921875,16.79649765625,4.17919921875,19.207197656250003,4.17919921875,19.207197656250003C4.17919921875,19.42149765625,4.28634221875,19.52869765625,4.50062821875,19.52869765625C4.50062821875,19.52869765625,16.47289921875,19.52869765625,16.47289921875,19.52869765625C16.47289921875,19.52869765625,16.47289921875,32.14469765625,16.47289921875,32.14469765625C16.47289921875,32.35899765625,16.57999921875,32.46619765625,16.794299218749998,32.46619765625C16.794299218749998,32.46619765625,19.20499921875,32.46619765625,19.20499921875,32.46619765625C19.419299218749998,32.46619765625,19.52649921875,32.35899765625,19.52649921875,32.14469765625C19.52649921875,32.14469765625,19.52649921875,19.52869765625,19.52649921875,19.52869765625C19.52649921875,19.52869765625,31.50059921875,19.52869765625,31.50059921875,19.52869765625C31.71489921875,19.52869765625,31.82209921875,19.42149765625,31.82209921875,19.207197656250003C31.82209921875,19.207197656250003,31.82209921875,16.79649765625,31.82209921875,16.79649765625C31.82209921875,16.582197656250003,31.71489921875,16.47509765625,31.50059921875,16.47509765625C31.50059921875,16.47509765625,19.52649921875,16.47509765625,19.52649921875,16.47509765625C19.52649921875,16.47509765625,19.52649921875,3.85902665625,19.52649921875,3.85902665625C19.52649921875,3.64474065625,19.419299218749998,3.53759765625,19.20499921875,3.53759765625C19.20499921875,3.53759765625,19.20499921875,3.53759765625,19.20499921875,3.53759765625Z" fill="#000000" fill-opacity="0.8500000238418579"/></g></g></svg>