<svg xmlns="http://www.w3.org/2000/svg" xmlns:xlink="http://www.w3.org/1999/xlink" fill="none" version="1.1" width="36" height="36" viewBox="0 0 36 36"><defs><clipPath id="master_svg0_131_02119"><rect x="0" y="0" width="36" height="36" rx="0"/></clipPath></defs><g clip-path="url(#master_svg0_131_02119)"><g><path d="M20.080668338012693,17.9981547958374C20.080668338012693,17.9981547958374,30.627568338012697,5.426294795837403,30.627568338012697,5.426294795837403C30.804268338012694,5.217365795837402,30.655668338012696,4.899954795837402,30.382468338012696,4.899954795837402C30.382468338012696,4.899954795837402,27.176168338012694,4.899954795837402,27.176168338012694,4.899954795837402C26.987368338012697,4.899954795837402,26.806568338012696,4.984329695837403,26.681968338012695,5.128972795837402C26.681968338012695,5.128972795837402,17.983368338012696,15.499054795837402,17.983368338012696,15.499054795837402C17.983368338012696,15.499054795837402,9.284668338012695,5.128972795837402,9.284668338012695,5.128972795837402C9.164128338012695,4.984329695837403,8.983328338012695,4.899954795837402,8.790468338012696,4.899954795837402C8.790468338012696,4.899954795837402,5.584219338012695,4.899954795837402,5.584219338012695,4.899954795837402C5.311004738012695,4.899954795837402,5.162343338012695,5.217365795837402,5.339129438012695,5.426294795837403C5.339129438012695,5.426294795837403,15.885968338012695,17.9981547958374,15.885968338012695,17.9981547958374C15.885968338012695,17.9981547958374,5.339129438012695,30.570054795837404,5.339129438012695,30.570054795837404C5.299527838012695,30.616654795837402,5.274121838012696,30.6735547958374,5.2659269180126955,30.7341547958374C5.2577319580126956,30.794754795837402,5.267092208012695,30.8563547958374,5.292897338012695,30.911754795837403C5.318702538012695,30.967254795837402,5.359868638012696,31.014054795837403,5.4115073380126955,31.0467547958374C5.463146338012695,31.079554795837403,5.523088338012696,31.096754795837402,5.584219338012695,31.096354795837403C5.584219338012695,31.096354795837403,8.790468338012696,31.096354795837403,8.790468338012696,31.096354795837403C8.979308338012695,31.096354795837403,9.160108338012694,31.012054795837404,9.284668338012695,30.867354795837404C9.284668338012695,30.867354795837404,17.983368338012696,20.497254795837403,17.983368338012696,20.497254795837403C17.983368338012696,20.497254795837403,26.681968338012695,30.867354795837404,26.681968338012695,30.867354795837404C26.802568338012694,31.012054795837404,26.983368338012696,31.096354795837403,27.176168338012694,31.096354795837403C27.176168338012694,31.096354795837403,30.382468338012696,31.096354795837403,30.382468338012696,31.096354795837403C30.655668338012696,31.096354795837403,30.804268338012694,30.778954795837404,30.627568338012697,30.570054795837404C30.627568338012697,30.570054795837404,20.080668338012693,17.9981547958374,20.080668338012693,17.9981547958374C20.080668338012693,17.9981547958374,20.080668338012693,17.9981547958374,20.080668338012693,17.9981547958374Z" fill="#000000" fill-opacity="0.8500000238418579"/></g></g></svg>